<svg width="32" height="32" viewBox="0 0 32 32" fill="none" xmlns="http://www.w3.org/2000/svg">
<path d="M20.3994 7.39983C19.386 7.39966 18.4131 7.79732 17.6899 8.50725C16.9668 9.21718 16.5512 10.1826 16.5327 11.1958L16.4954 13.2958C16.4932 13.4086 16.4672 13.5196 16.4191 13.6216C16.371 13.7236 16.3018 13.8143 16.2162 13.8877C16.1306 13.9611 16.0304 14.0155 15.9223 14.0475C15.8142 14.0795 15.7005 14.0882 15.5887 14.0732L13.5074 13.7905C10.7687 13.4172 8.14471 12.1558 5.62738 10.0585C4.83004 14.4718 6.38737 17.5292 10.138 19.8878L12.4674 21.3518C12.578 21.4214 12.67 21.517 12.7352 21.6303C12.8003 21.7436 12.8368 21.8712 12.8412 22.0018C12.8457 22.1324 12.8181 22.2622 12.7608 22.3797C12.7036 22.4972 12.6184 22.5989 12.5127 22.6758L10.39 24.2265C11.6527 24.3052 12.8514 24.2492 13.846 24.0518C20.1367 22.7958 24.3194 18.0625 24.3194 10.2545C24.3194 9.61716 22.97 7.39983 20.3994 7.39983ZM13.866 11.1465C13.8893 9.86123 14.2912 8.61139 15.0215 7.55346C15.7517 6.49553 16.7778 5.67652 17.9713 5.19898C19.1647 4.72145 20.4726 4.6066 21.731 4.86882C22.9895 5.13105 24.1426 5.75869 25.046 6.67316C25.994 6.66649 26.8007 6.90649 28.6047 5.81316C28.158 7.99983 27.938 8.94916 26.986 10.2545C26.986 20.4438 20.7234 25.3985 14.3687 26.6665C10.0114 27.5358 3.67537 26.1078 1.85938 24.2118C2.78471 24.1398 6.54471 23.7358 8.71804 22.1452C6.87937 20.9332 -0.439291 16.6265 4.37004 5.04783C6.62737 7.68383 8.91671 9.47849 11.2367 10.4305C12.7807 11.0638 13.1594 11.0505 13.8674 11.1478L13.866 11.1465Z" fill="#00AA84"/>
</svg>
